# xmcd
#
# Track frame offsets:
#	150
#	21298
#	44833
#	64984
#	79671
#	103429
#	122313
#	138267
#	159634
#	173315
#	187422
#	203472
#	218847
#	243509
#	258612
#	284243
#	302251
#	319182
#	343798
#
# Disc length: 4794 seconds
#
# Revision: 2
# Processed by: cddbd v1.5.2PL0 Copyright (c) Steve Scherf et al.
# Submitted via: EZCDAudioConverter 6.0.0.1
#
DISCID=2112b813
DTITLE=Various Artist - Akella Presents - vol.67 - Russia-Blues  CD1
DYEAR=2016
DGENRE=Blues
TTITLE0=Blues Cousins - Girl From Russia
TTITLE1=5R Asanbay Blues Band - Thrill Is Gone
TTITLE2=Nickolay Sadikov and Blues Hammer Band - I Don't Care
TTITLE3=Arutjunov - Groover
TTITLE4=NikaDim - 25 Again
TTITLE5=Petrovitch Harmonica Man and The Hot Rod Band - Strange Brew
TTITLE6=Arsen Shomakhov and Ragtime - Too Hot
TTITLE7=Crossroads - Can't Get Away
TTITLE8=Blackmailers - Work Song
TTITLE9=Alexander Rastopchin - Going Home
TTITLE10=Blues Cousins - Nobody Knows
TTITLE11=Dr. Nick - I Think I'll Stay
TTITLE12=Youddiph - Heavy Sin
TTITLE13=5 Pence - Johnny B. Goode
TTITLE14=Boogie Bottles - Whos Been Talking
TTITLE15=Dirty Dozen and Kaverkin - Rock Me Baby
TTITLE16=Mishouris Blues Band - Stupid Butterfly
TTITLE17=Svet Boogie Band - Look What You Get, Girl
TTITLE18=Sergey Truhanovich - Night Express
EXTD=
EXTT0=
EXTT1=
EXTT2=
EXTT3=
EXTT4=
EXTT5=
EXTT6=
EXTT7=
EXTT8=
EXTT9=
EXTT10=
EXTT11=
EXTT12=
EXTT13=
EXTT14=
EXTT15=
EXTT16=
EXTT17=
EXTT18=
PLAYORDER=
